Patient4_TMGait_0pt6_01_left_01_EMG.mot
version=1
nRows=16
nColumns=33
inDegrees=no
endheader
time	1LAddLong	2LGlutMax	3LGlutMed	4LIliopsoas	5LSemiMemb	6LBicFemLong	7LRecFem	8LVastMed	9LVastLat	10LGasMed	11LTibAnt	12lTibPost	13LPeroneusLong	14LSol	15LExtDigLong	16LFlexDigLong	17RAddLong	18RGlutMax	19RGlutMed	20RIliopsoas	21RSemiMemb	22RBicFemLong	23RRecFem	24RVastMed	25RVastLat	26RGasMed	27RTibAnt	28RTibPost	29RPeroneusLong	30RSol	31RExtDigLong	32RFlexDigLong
1.595	-0.000458	-0.62561	-0.11673	-0.00885	-0.11353	-0.23224	-0.005951	0.005188	-0.1767	-0.010376	0.025787	-0.021667	-0.093079	-0.28503	-0.11444	0.005951	0.033264	0.3064	-0.055542	-0.056	-0.054626	-0.078583	0.46265	-0.033264	0.053253	0.000763	0.050049	-0.00824	0.091553	-0.002594	-0.001221	-0.024109
1.596	0.042419	-0.4538	-0.085754	-0.003662	0.12131	-0.074158	0.09903	-0.024719	-0.36224	-0.003052	0.049591	0.011292	0.090485	-0.24735	-0.10864	0.003967	0.002594	0.30685	0.020752	-0.038757	-0.036621	-0.081177	0.46249	-0.003204	0.048065	0.007477	-0.052643	-0.005951	0.41046	0.005188	-0.000916	-0.010834
1.597	0.043793	-0.42893	-0.082245	0.007477	0.064392	-0.14496	0.15335	-0.034027	-0.50354	-0.044098	0.02594	0.012207	-0.037994	-0.15305	-0.1384	0.011292	0.018921	0.36438	0.021973	-0.027008	-0.033875	-0.07843	0.47409	0.002441	0.028229	0.004883	-0.13458	-0.001526	0.14328	0.045776	-0.00351	-0.010223
1.598	0.045013	-0.31662	0.14084	0.013275	0.007629	-0.17792	0.24902	-0.032196	-0.36438	-0.009003	0.018921	-0.009308	0.30243	-0.16419	-0.11932	0.011749	-0.005035	0.41061	0.010834	-0.079346	-0.024261	-0.074615	0.53253	-0.011444	0.024872	-0.001221	-0.038757	-0.005341	-0.24445	0.093384	-0.00473	-0.016022
1.599	0.044708	-0.2713	0.028992	0.003662	-0.08667	0.063629	0.21576	0.023193	-0.22598	0.002899	0.054321	0.011292	0.046692	-0.24307	0.002136	0.001984	-0.021667	0.38513	0.029297	-0.088348	-0.007324	0.007019	0.52811	-0.034332	0.00885	-0.003052	0.038757	-0.010681	-0.60745	0.12451	-0.003967	-0.011292
1.6	0.033722	-0.29526	0.13565	-0.010376	-0.065765	0.082092	0.14984	0.070038	-0.073547	-0.046692	0.010376	-0.011292	-0.33936	-0.30807	0.068054	0.010223	-0.028229	0.39963	0.042725	-0.096741	-0.025177	0.092163	0.55893	-0.042572	-0.009613	0.007172	0.030365	-0.011902	-0.37399	0.17914	-0.007172	-0.022125
1.601	0.037384	-0.2272	0.15656	-0.017395	0.063782	-0.31754	0.14252	0.068665	0.019989	-0.018005	0.008392	0.00473	-0.48447	-0.38681	0.080261	0.008392	0.016479	0.46097	0.026093	-0.03418	-0.008545	0.057983	0.57587	-0.026093	0	0.002289	0.0177	-0.008087	-0.1741	0.15915	-0.005341	-0.012665
1.602	0.037994	-0.12955	0.031128	-0.010376	0.044403	-0.28153	0.28763	0.028992	-0.03479	-0.075073	-0.031586	0.019226	0.35126	-0.33295	0.008698	0.005646	0.015259	0.42206	-0.04837	0.005035	0.02182	0.032349	0.52063	-0.014801	-0.009308	0.005188	-0.076599	-0.01236	0.47379	0.13992	-0.007324	-0.019226
1.603	0.041809	-0.13367	-0.040894	0.005188	0.011139	-0.12634	0.42602	0.001678	-0.35217	-0.11429	-0.020752	0.003357	0.54459	-0.12695	0.034637	0.016632	-0.044556	0.3157	-0.075531	-0.068054	0.042267	-0.029449	0.50079	-0.041656	0.011139	-0.012207	-0.17303	-0.010376	0.91949	0.078125	-0.002594	-0.01709
1.604	0.028229	-0.074921	0.031891	0.032806	0.00946	-0.078888	0.43335	-0.008087	-0.79239	-0.056458	0.024872	-0.002136	-0.27374	0	0.053558	0.000305	-0.059204	0.3183	-0.040588	-0.094757	0.047455	-0.079193	0.51544	-0.048218	0.017395	-0.007019	-0.1149	-0.009308	-0.12711	-0.028687	-0.003357	-0.009155
1.605	0.022736	0.053864	0.055695	0.013428	0.02533	-0.073853	0.35919	-0.002289	-0.7077	-0.043945	0.035858	0.001221	-0.7074	0.050507	0.056305	0.016937	-0.048981	0.45029	0.049286	-0.050201	-0.020142	-0.097809	0.54642	-0.076752	0.011902	-0.009003	-0.006866	-0.003052	-0.37293	-0.020599	-0.003662	-0.01358
1.606	0.015564	0.10819	-0.082245	-0.009918	0.047913	-0.092316	0.31082	-0.003662	-0.19257	-0.094604	0.002594	0.002594	-0.35049	0.075989	-0.007782	0.007019	-0.039368	0.32379	0.072632	-0.011749	-0.068512	-0.070343	0.50949	-0.089111	0.012207	-0.010376	0.18799	-0.002899	-0.33295	0.012207	-0.002594	-0.016022
1.607	0.0177	0.19119	-0.1915	-0.011902	0.02594	-0.007629	0.23712	0.014343	-0.018005	-0.038757	-0.012054	-0.001984	-0.015869	0.073547	-0.03891	-0.000916	-0.003357	0.35873	0.037994	0.05722	-0.08194	-0.023804	0.51041	-0.042267	0.019226	-0.003052	0.16281	-0.002747	0.11063	0.094299	0.000153	-0.019836
1.608	0.00473	0.25345	-0.22201	0.009766	-0.055542	0.050659	0.14297	0.026855	0.04303	-0.033875	-0.011139	0.017853	0.17731	-0.019836	-0.041504	-0.000153	0.021515	0.29907	0.046539	0.072174	-0.064697	-0.063019	0.522	-0.055237	0.016785	0.007477	0.19653	-0.003204	0.90714	0.15579	0.00061	-0.01236
1.609	-0.002747	0.34531	-0.15747	0.005188	-0.073395	0.13702	0.060577	0.017548	0.17822	0.024109	-0.015564	-0.003052	-0.074158	0.005951	-0.016937	0.001678	-0.007782	0.26413	0.077667	-0.002441	-0.033112	-0.033569	0.50964	-0.025024	-0.012207	0.009766	0.068512	-0.001526	0.94818	0.15121	-0.001373	-0.016937
1.61	0.011749	0.39154	-0.10315	0.004578	-0.009155	0.28717	0.13779	0.035553	0.11765	0.019531	0.008087	0.010376	-0.13443	-0.076141	0.000916	0.000763	0.019836	0.2153	0.034943	-0.016479	-0.012054	0.042114	0.53894	-0.028839	-0.012054	0.01236	-0.10651	0.000153	-0.03952	0.000763	-0.00061	-0.023193
